HIERARCHY
ROOT pelvis
{
  OFFSET 0 100 0
  CHANNELS 6 Xposition Yposition Zposition Zrotation Xrotation Yrotation
  JOINT pelvis_right_femur
  {
    OFFSET -10.78128 -3.44521 -0.5502486
    CHANNELS 3 Zrotation Xrotation Yrotation
    JOINT right_femur_tibia
    {
      OFFSET -0.8047443 -44.0398 -0.1307829
      CHANNELS 3 Zrotation Xrotation Yrotation
      JOINT right_tibia_foot
      {
        OFFSET 3.006224 -47.83518 -5
        CHANNELS 3 Zrotation Xrotation Yrotation
        End Site
        {
          OFFSET 0 -5 15
        }
      }
    }
  }
  JOINT pelvis_left_femur
  {
    OFFSET 10.78128 -3.44521 -0.5502486
    CHANNELS 3 Zrotation Xrotation Yrotation
    JOINT left_femur_tibia
    {
      OFFSET 0.8047443 -44.0398 -0.1307829
      CHANNELS 3 Zrotation Xrotation Yrotation
      JOINT left_tibia_foot
      {
        OFFSET -4.370144 -48.10324 -4.275266
        CHANNELS 3 Zrotation Xrotation Yrotation
        End Site
        {
          OFFSET 0 -5 15
        }
      }
    }
  }
  JOINT pelvis_spine1
  {
    OFFSET 0 6.468898 -3.129235
    CHANNELS 3 Zrotation Xrotation Yrotation
    JOINT spine1
    {
      OFFSET 0 23.15396 4.99043
      CHANNELS 3 Zrotation Xrotation Yrotation
      JOINT spine2
      {
        OFFSET 0 20.79997 -5.064912
        CHANNELS 3 Zrotation Xrotation Yrotation
        JOINT neck
        {
          OFFSET 0 14.38658 9.616178
          CHANNELS 3 Zrotation Xrotation Yrotation
          End Site
          {
            OFFSET 0 20 0
          }
        }
      }
      JOINT right_manubrium
      {
        OFFSET -5.722621 16.35077 3.967754
        CHANNELS 3 Zrotation Xrotation Yrotation
        JOINT right_clavicle
        {
          OFFSET -13.16364 1.694482 -4.693211
          CHANNELS 3 Zrotation Xrotation Yrotation
          JOINT right_humerus
          {
            OFFSET -28.5034 -0.3100689 -2.792744
            CHANNELS 3 Zrotation Xrotation Yrotation
            JOINT right_radius
            {
              OFFSET -25.15693 0.02248979 -1.271978
              CHANNELS 3 Zrotation Xrotation Yrotation
              End Site
              {
                OFFSET -15 0 0
              }
            }
          }
        }
      }
      JOINT left_manubrium
      {
        OFFSET 5.722621 16.35077 3.967754
        CHANNELS 3 Zrotation Xrotation Yrotation
        JOINT left_clavicle
        {
          OFFSET 13.16364 1.694482 -4.693211
          CHANNELS 3 Zrotation Xrotation Yrotation
          JOINT left_humerus
          {
            OFFSET 29.39168 -1.063119 -2.237045
            CHANNELS 3 Zrotation Xrotation Yrotation
            JOINT left_radius
            {
              OFFSET 24.59957 -0.9528479 0.9047498
              CHANNELS 3 Zrotation Xrotation Yrotation
              End Site
              {
                OFFSET 15 -0 -0
              }
            }
          }
        }
      }
    }
  }
}
MOTION
Frames: 19
Frame Time: 0.0416666666667
0 103.5113 0 2.545829 0.8188197 0.07402499 2.950921 -15.34555 12.10138 -0 37.15887 -0 -3.875187 -18.75336 -3.563157 -9.040004 8.703045 -22.20066 -0 4.147502 -0 22.91336 -8.954029 30.18555 -2.394405 -2.383648 5.715164 1.644052 11.35087 -6.458954 1.888664 21.77066 5.448694 3.245461 -23.73603 8.49984 6.41558 -19.47303 10.68567 85.31273 37.10917 -17.90483 -0 0 14.84477 -8.955185 9.406596 4.58701 6.325897 -20.85948 -2.792178 -92.26301 22.70439 20.88086 0 0 -15.34109 14.34825 13.85063 -0.9444937
0.3867057 104.1583 1.553679 1.807403 1.694976 0.1095118 4.441689 -18.15012 13.3939 -0 38.40951 -0 -3.848098 -17.36038 -3.805901 -8.618666 8.406508 -22.00887 -0 4.572168 -0 22.75242 -9.528479 30.61608 -2.269812 -2.126878 5.421986 1.919443 11.11303 -6.687081 1.771681 21.53297 5.747347 3.404566 -24.15415 8.523675 6.392802 -19.07293 10.82244 85.41112 36.65895 -18.18413 -0 0 14.36035 -9.107853 9.611415 4.840911 6.331696 -20.89816 -2.579847 -92.05503 22.54444 20.3417 0 0 -15.61967 13.83381 13.6238 -0.6658079
0.6568029 104.3225 3.682531 1.316139 -0.2051104 0.2488258 4.06432 -20.92211 5.914723 -0 31.64087 -0 -7.460686 -12.94604 -1.144623 -7.697579 10.9751 -20.51017 -0 6.238108 -0 17.56237 -14.51113 27.34171 -2.220525 -2.340936 5.512421 1.977569 11.04079 -6.819941 1.852713 21.55395 5.617611 3.198559 -24.33784 8.685492 6.308397 -19.24237 10.77477 85.75742 36.6496 -18.70411 -0 0 14.45001 -8.471516 9.449559 4.387273 6.288342 -20.88848 -2.486463 -92.43675 23.19793 20.87776 0 0 -15.78309 13.50313 14.13486 -0.1293893
0.8831965 104.4253 6.233897 0.7684301 -0.3390228 0.3332762 4.524099 -23.92493 3.541612 -0 28.45514 -0 -8.886119 -10.03269 -0.1143562 -7.153116 11.81923 -19.29139 -0 7.608353 -0 15.76927 -16.49529 25.76477 -2.169044 -2.367183 5.459123 2.089205 10.93096 -6.949118 1.851913 21.49022 5.6542 3.15462 -24.55186 8.770044 6.260971 -19.20413 10.79446 85.93064 36.49639 -19.00773 -0 0 14.36279 -8.237508 9.430794 4.26611 6.275405 -20.89071 -2.373462 -92.55112 23.43124 20.96019 0 0 -15.91597 13.20347 14.29615 0.1800267
1.062892 104.3921 9.30404 0.3405748 -0.5217923 0.4442928 4.614604 -26.60792 0.853643 -0 24.26069 -0 -10.18812 -6.956011 0.9289759 -6.668186 12.82244 -17.77161 -0 9.341526 -0 13.45558 -18.40698 23.58602 -2.079554 -2.354609 5.416036 2.209399 10.79071 -7.075328 1.846386 21.42024 5.690331 3.106066 -24.78987 8.842422 6.175683 -19.15521 10.81184 86.1145 36.32182 -19.30786 -0 0 14.23253 -8.009277 9.420434 4.182366 6.229587 -20.8779 -2.26242 -92.66571 23.75596 21.06559 0 0 -16.15584 12.76821 14.42056 0.6693918
1.21023 104.3315 12.9071 -0.04133369 -0.3949071 0.5918613 4.81539 -28.9433 -0.8638825 -0 20.58752 -0 -11.00902 -4.234293 1.616551 -6.292174 13.5613 -16.22941 -0 11.55815 -0 11.663 -19.50732 21.52742 -1.998474 -2.281347 5.358062 2.309759 10.66981 -7.159336 1.820621 21.34983 5.752718 3.108184 -24.97047 8.866146 6.109414 -19.06517 10.83905 86.2038 36.16783 -19.46158 -0 0 14.07357 -7.949907 9.455541 4.222349 6.186724 -20.86519 -2.184201 -92.67585 23.92553 21.03889 0 0 -16.37025 12.41317 14.40399 1.039063
1.327135 104.3018 17.09088 -0.3632061 -0.2080981 0.7863606 5.0065 -30.65951 -2.133563 -0 17.02438 -0 -11.4694 -1.678414 2.026894 -5.961902 14.24613 -14.58353 -0 14.46826 -0 9.632425 -20.03953 19.22239 -1.90849 -2.163399 5.305135 2.393594 10.55815 -7.212938 1.785583 21.28438 5.819014 3.132165 -25.11142 8.854098 6.042822 -18.9549 10.86816 86.24783 36.03498 -19.53307 -0 0 13.88454 -7.982289 9.516155 4.336988 6.129949 -20.84857 -2.136086 -92.62887 24.05174 20.95815 0 0 -16.61459 12.06125 14.30057 1.412131
1.415349 104.3993 21.88136 -0.6612346 -0.0111934 1.015254 5.33717 -31.56364 -2.755555 -0 14.02469 -0 -11.54798 0.6017694 2.081389 -5.636856 14.77535 -12.89785 -0 18.31124 -0 7.41128 -19.78952 16.79617 -1.82829 -2.012806 5.268271 2.437982 10.48582 -7.217489 1.745567 21.23801 5.877749 3.181058 -25.16821 8.797199 5.993676 -18.83909 10.89586 86.22298 35.95508 -19.48285 -0 0 13.69632 -8.133005 9.598728 4.52584 6.069944 -20.83325 -2.135782 -92.51311 24.0814 20.81571 0 0 -16.8384 11.7961 14.10692 1.697434
1.472778 104.7194 27.28017 -0.9521657 0.1019117 1.24201 5.853635 -31.45926 -2.668052 -0 11.82952 -0 -11.20472 2.520534 1.710402 -5.267882 15.04466 -11.22614 -0 23.20692 -0 4.904321 -18.66094 14.35235 -1.758456 -1.844108 5.259563 2.437599 10.45633 -7.173657 1.706727 21.21706 5.916234 3.241746 -25.13699 8.70041 5.9571 -18.73567 10.91807 86.1408 35.93048 -19.32281 -0 0 13.52879 -8.376523 9.689793 4.767524 6.004235 -20.8174 -2.1824 -92.35232 24.04702 20.65079 0 0 -17.03975 11.60576 13.8512 1.922711
1.494701 105.3491 33.23952 -1.240209 0.03475749 1.403741 6.546071 -30.19987 -1.870889 -0 10.69565 -0 -10.46945 3.910336 0.9051244 -4.819417 14.85067 -9.668849 -0 29.16801 -0 2.258895 -16.61337 12.16545 -1.707294 -1.671825 5.290221 2.381466 10.47908 -7.074517 1.673447 21.22892 5.924914 3.307848 -25.00286 8.565025 5.933047 -18.66425 10.93087 85.99282 35.96832 -19.03567 -0 0 13.4155 -8.711568 9.779394 5.053563 5.93742 -20.79969 -2.275664 -92.15977 23.94612 20.48784 0 0 -17.19162 11.5122 13.54884 2.069552
1.473249 106.3422 39.64971 -1.488236 -0.3126403 1.421331 7.264629 -27.73031 -0.5645836 -0 10.62326 -0 -9.44564 4.577888 -0.2533376 -4.294865 13.96433 -8.336662 -0 35.96702 -0 -0.301266 -13.84835 10.55946 -1.677695 -1.509382 5.368931 2.266489 10.55008 -6.919219 1.648591 21.27583 5.89827 3.370729 -24.76786 8.397099 5.912616 -18.64377 10.93072 85.77484 36.06329 -18.61247 -0 0 13.38807 -9.127875 9.857347 5.376205 5.871699 -20.77539 -2.405114 -91.95671 23.79687 20.36046 0 0 -17.2804 11.507 13.21949 2.152194
1.398248 107.7022 46.34078 -1.619191 -1.025226 1.22264 7.776243 -24.1149 0.8836971 -0 11.30992 -0 -8.318414 4.363753 -1.583887 -3.753179 12.18719 -7.308604 -0 43.129 -0 -2.51429 -10.82987 9.808146 -1.672409 -1.367173 5.500884 2.092386 10.65958 -6.706823 1.632373 21.35615 5.83639 3.425574 -24.43914 8.202765 5.884488 -18.69046 10.91466 85.47449 36.20511 -18.03442 -0 0 13.47874 -9.625563 9.917121 5.737572 5.811593 -20.73863 -2.555432 -91.75898 23.60795 20.29351 0 0 -17.29194 11.58214 12.87414 2.177956
1.259524 109.3748 53.10978 -1.546154 -2.13095 0.7760822 7.885973 -19.54559 2.107497 -0 12.2134 -0 -7.25761 3.237464 -2.877293 -3.287854 9.43793 -6.592135 -0 49.92782 -0 -4.191864 -8.174851 10.02189 -1.691348 -1.251417 5.686819 1.864582 10.78936 -6.439475 1.622284 21.46312 5.74513 3.469895 -24.03344 7.98902 5.83336 -18.81574 10.88089 85.07735 36.37484 -17.28238 -0 0 13.71391 -10.20937 9.955189 6.147638 5.761446 -20.68205 -2.706058 -91.57869 23.38815 20.30512 0 0 -17.22065 11.71686 12.51715 2.163124
1.051376 111.25 59.76702 -1.233627 -3.565563 0.1129514 7.552487 -14.30848 2.923983 -0 12.80143 -0 -6.324165 1.352497 -3.974115 -2.955286 5.790784 -6.121817 -0 55.45724 -0 -5.277371 -6.393124 11.11862 -1.73344 -1.163764 5.922966 1.592481 10.91694 -6.120957 1.613267 21.58615 5.635338 3.504364 -23.57231 7.761968 5.742693 -19.0256 10.82902 84.56563 36.5454 -16.33406 -0 0 14.11405 -10.8926 9.970334 6.625498 5.725533 -20.5971 -2.834691 -91.42127 23.13839 20.40273 0 0 -17.06423 11.88521 12.1433 2.123715
0.7778463 113.1685 66.18254 -0.7469637 -5.161674 -0.6855081 6.901215 -8.743475 3.380267 -0 12.81023 -0 -5.457863 -1.005821 -4.786261 -2.705069 1.452152 -5.801703 -0 58.74382 -0 -5.870669 -5.664043 12.87043 -1.797007 -1.102071 6.20183 1.288971 11.01815 -5.757053 1.598617 21.7122 5.520849 3.531195 -23.0804 7.526652 5.59589 -19.32132 10.76035 83.92195 36.68018 -15.16809 -0 0 14.69372 -11.69343 9.96118 7.196237 5.706286 -20.47349 -2.919559 -91.288 22.85487 20.58692 0 0 -16.82147 12.05379 11.74034 2.079692
0.4561269 114.9366 72.31204 -0.2447729 -6.683946 -1.534726 6.143672 -3.206335 3.631836 -0 12.32951 -0 -4.569914 -3.56249 -5.25785 -2.388018 -3.297293 -5.553128 -0 58.95994 -0 -6.195719 -5.808904 14.97688 -1.880731 -1.061717 6.513044 0.9693351 11.07071 -5.355391 1.571173 21.82766 5.416285 3.552788 -22.58297 7.287169 5.378359 -19.70057 10.67801 83.13347 36.73241 -13.76838 -0 0 15.46292 -12.63056 9.923603 7.886557 5.703087 -20.2987 -2.942056 -91.17911 22.53068 20.85509 0 0 -16.48733 12.18287 11.29211 2.055062
0.1153566 116.3593 78.19507 0.09201124 -7.901496 -2.388761 5.47388 1.976954 3.78584 -0 11.68276 -0 -3.638059 -6.16856 -5.343959 -1.855827 -8.136782 -5.335253 -0 55.74352 -0 -6.500556 -6.455128 17.12572 -1.983328 -1.036636 6.843697 0.6508526 11.05748 -4.926609 1.524836 21.91977 5.334982 3.570347 -22.10482 7.047539 5.080208 -20.15681 10.58727 82.20086 36.64582 -12.13576 -0 0 16.42438 -13.71458 9.84926 8.716871 5.710968 -20.0589 -2.889413 -91.09741 22.16102 21.20477 0 0 -16.05224 12.22566 10.7837 2.080969
-0.2101863 117.2922 83.93149 0.1545182 -8.665702 -3.242834 4.992231 6.566933 3.848923 -0 11.23479 -0 -2.713684 -8.777098 -5.044227 -1.081535 -12.71441 -5.142484 -0 49.49965 -0 -6.926262 -7.2401 19.04531 -2.10231 -1.019503 7.177857 0.3521656 10.97118 -4.486244 1.456464 21.97814 5.286971 3.583397 -21.66878 6.812579 4.701095 -20.67584 10.49627 81.15133 36.35994 -10.30644 -0 0 17.56484 -14.93643 9.726742 9.689811 5.719971 -19.74243 -2.758901 -91.04994 21.74823 21.63232 0 0 -15.50557 12.13115 10.20729 2.195724
-0.4902028 117.6926 89.64935 -0.03196913 -8.954762 -4.104331 4.668358 10.44997 3.793224 -0 11.26479 -0 -1.854253 -11.29114 -4.447115 -0.2146592 -16.67388 -5.004097 -0 41.44745 -0 -7.431927 -7.929137 20.55329 -2.231924 -1.00107 7.495977 0.0915416 10.82049 -4.056591 1.36806 21.99683 5.276617 3.590267 -21.29243 6.588199 4.256793 -21.22987 10.41653 80.05208 35.82434 -8.373054 -0 0 18.83997 -16.25461 9.546758 10.77635 5.715707 -19.34691 -2.563344 -91.04613 21.30645 22.12613 0 0 -14.84534 11.85283 9.568127 2.440284
